<?xml version="1.0" encoding="utf-8"?>
<!-- Generator: Adobe Illustrator 14.0.0, SVG Export Plug-In . SVG Version: 6.00 Build 43363)  -->
<!DOCTYPE svg PUBLIC "-//W3C//DTD SVG 1.1//EN" "http://www.w3.org/Graphics/SVG/1.1/DTD/svg11.dtd">
<svg version="1.1" id="Camada_1" xmlns="http://www.w3.org/2000/svg" xmlns:xlink="http://www.w3.org/1999/xlink" x="0px" y="0px"
	 width="34.063px" height="7.625px" viewBox="0 0 34.063 7.625" enable-background="new 0 0 34.063 7.625" xml:space="preserve">
<g>
	<g>
		<rect x="16.079" y="0.749" fill="#FFFFFF" width="0.101" height="6.127"/>
		<g>
			<path fill="#FFFFFF" d="M19.703,3.194c-0.132,0.051-0.398,0.126-0.707,0.126c-0.347,0-0.632-0.088-0.856-0.303
				c-0.196-0.19-0.319-0.496-0.319-0.853c0-0.683,0.473-1.182,1.24-1.182c0.266,0,0.477,0.057,0.575,0.104l-0.075,0.241
				c-0.122-0.057-0.275-0.099-0.506-0.099c-0.558,0-0.922,0.348-0.922,0.921c0,0.581,0.347,0.925,0.884,0.925
				c0.193,0,0.326-0.027,0.394-0.062V2.332h-0.461V2.095h0.754V3.194z"/>
			<path fill="#FFFFFF" d="M22.113,2.128c0,0.785-0.479,1.207-1.063,1.207c-0.609,0-1.029-0.473-1.029-1.166
				c0-0.728,0.448-1.203,1.06-1.203C21.709,0.966,22.113,1.445,22.113,2.128z M20.333,2.162c0,0.493,0.265,0.932,0.733,0.932
				c0.47,0,0.734-0.433,0.734-0.952c0-0.459-0.238-0.935-0.731-0.935C20.578,1.207,20.333,1.662,20.333,2.162z"/>
			<path fill="#FFFFFF" d="M24.459,2.128c0,0.785-0.479,1.207-1.063,1.207c-0.608,0-1.029-0.473-1.029-1.166
				c0-0.728,0.448-1.203,1.06-1.203C24.055,0.966,24.459,1.445,24.459,2.128z M22.679,2.162c0,0.493,0.265,0.932,0.733,0.932
				c0.47,0,0.734-0.433,0.734-0.952c0-0.459-0.238-0.935-0.731-0.935C22.924,1.207,22.679,1.662,22.679,2.162z"/>
			<path fill="#FFFFFF" d="M24.848,1.04c0.181-0.03,0.394-0.051,0.629-0.051c0.424,0,0.728,0.103,0.928,0.285
				c0.207,0.188,0.325,0.452,0.325,0.823c0,0.373-0.118,0.679-0.329,0.89c-0.218,0.215-0.571,0.33-1.017,0.33
				c-0.214,0-0.388-0.011-0.536-0.027V1.04z M25.143,3.065c0.075,0.011,0.184,0.014,0.3,0.014c0.635,0,0.975-0.354,0.975-0.972
				c0.004-0.541-0.302-0.883-0.928-0.883c-0.152,0-0.268,0.014-0.347,0.03V3.065z"/>
			<path fill="#FFFFFF" d="M17.956,4.358c0.143-0.023,0.33-0.045,0.567-0.045c0.293,0,0.507,0.068,0.643,0.191
				c0.123,0.108,0.201,0.275,0.201,0.479c0,0.208-0.063,0.37-0.177,0.49c-0.16,0.166-0.411,0.25-0.7,0.25
				c-0.088,0-0.17-0.003-0.238-0.02v0.917h-0.296V4.358z M18.252,5.463c0.064,0.017,0.146,0.023,0.245,0.023
				c0.356,0,0.574-0.177,0.574-0.486c0-0.306-0.218-0.452-0.54-0.452c-0.129,0-0.229,0.011-0.279,0.024V5.463z"/>
			<path fill="#FFFFFF" d="M19.768,4.362c0.149-0.027,0.366-0.049,0.567-0.049c0.315,0,0.523,0.062,0.662,0.188
				c0.112,0.103,0.181,0.258,0.181,0.438c0,0.299-0.19,0.5-0.428,0.581v0.01c0.174,0.062,0.277,0.225,0.333,0.463
				c0.074,0.318,0.129,0.54,0.177,0.628h-0.306c-0.038-0.068-0.089-0.262-0.15-0.547c-0.067-0.316-0.193-0.435-0.462-0.445h-0.279
				v0.992h-0.295V4.362z M20.063,5.405h0.304c0.315,0,0.517-0.173,0.517-0.436c0-0.295-0.215-0.424-0.527-0.424
				c-0.143,0-0.241,0.009-0.293,0.023V5.405z"/>
			<path fill="#FFFFFF" d="M21.987,5.9l-0.238,0.721h-0.307l0.782-2.29h0.354l0.781,2.29h-0.316L22.799,5.9H21.987z M22.741,5.67
				l-0.228-0.659c-0.051-0.149-0.085-0.286-0.119-0.418h-0.007c-0.034,0.132-0.067,0.275-0.115,0.414L22.048,5.67H22.741z"/>
			<path fill="#FFFFFF" d="M25.246,6.55c-0.105,0.055-0.326,0.108-0.604,0.108c-0.646,0-1.129-0.407-1.129-1.161
				c0-0.721,0.485-1.203,1.196-1.203c0.282,0,0.466,0.061,0.544,0.102l-0.075,0.241c-0.108-0.055-0.269-0.095-0.458-0.095
				c-0.537,0-0.895,0.344-0.895,0.944c0,0.564,0.323,0.922,0.877,0.922c0.184,0,0.367-0.038,0.486-0.097L25.246,6.55z"/>
			<path fill="#FFFFFF" d="M26.154,4.582h-0.697V4.331h1.696v0.251h-0.7v2.039h-0.299V4.582z"/>
			<path fill="#FFFFFF" d="M27.707,4.331v2.29h-0.299v-2.29H27.707z"/>
			<path fill="#FFFFFF" d="M29.823,6.55c-0.105,0.055-0.327,0.108-0.605,0.108c-0.646,0-1.128-0.407-1.128-1.161
				c0-0.721,0.485-1.203,1.195-1.203c0.282,0,0.467,0.061,0.545,0.102l-0.075,0.241c-0.108-0.055-0.27-0.095-0.459-0.095
				c-0.536,0-0.894,0.344-0.894,0.944c0,0.564,0.322,0.922,0.876,0.922c0.184,0,0.368-0.038,0.486-0.097L29.823,6.55z"/>
			<path fill="#FFFFFF" d="M31.383,5.547h-0.888v0.827h0.992v0.247h-1.291v-2.29h1.24v0.248h-0.941v0.725h0.888V5.547z"/>
			<path fill="#FFFFFF" d="M31.838,6.262c0.133,0.084,0.322,0.148,0.526,0.148c0.303,0,0.479-0.159,0.479-0.39
				c0-0.211-0.122-0.337-0.432-0.452c-0.373-0.136-0.605-0.333-0.605-0.652c0-0.357,0.297-0.622,0.741-0.622
				c0.231,0,0.404,0.054,0.503,0.112L32.97,4.647c-0.071-0.044-0.225-0.108-0.432-0.108c-0.313,0-0.432,0.186-0.432,0.343
				c0,0.214,0.14,0.318,0.455,0.441c0.388,0.15,0.582,0.336,0.582,0.673c0,0.354-0.259,0.662-0.799,0.662
				c-0.222,0-0.463-0.067-0.585-0.148L31.838,6.262z"/>
		</g>
	</g>
	<g>
		<path fill="#FFFFFF" d="M0.927,0.963h2.022c0.479,0,1.122,0.204,1.122,0.94c0,0.712-0.512,1.006-1.126,1.006H2.102v0.787H0.927
			V0.963L0.927,0.963z M2.071,2.273h0.26c0.281,0,0.566-0.047,0.566-0.352c0-0.29-0.285-0.325-0.57-0.325H2.071V2.273z"/>
		<path fill="#FFFFFF" d="M4.883,0.963h1.619l1.091,2.733H6.361L6.159,3.104H5.167L4.979,3.695H3.809L4.883,0.963z M5.33,2.447h0.68
			L5.676,1.55H5.668L5.33,2.447z"/>
		<polygon fill="#FFFFFF" points="9.708,0.963 10.884,0.963 10.884,3.695 9.708,3.695 9.708,2.714 8.921,2.714 8.921,3.695 
			7.747,3.695 7.747,0.963 8.921,0.963 8.921,1.907 9.708,1.907 		"/>
		<path fill="#FFFFFF" d="M12.883,3.743c-1.07,0-1.696-0.481-1.696-1.413c0-0.918,0.627-1.414,1.696-1.414
			c1.071,0,1.711,0.496,1.711,1.414C14.594,3.262,13.953,3.743,12.883,3.743 M12.883,3.085c0.466,0,0.478-0.463,0.484-0.755
			c-0.004-0.256-0.034-0.756-0.484-0.756c-0.432,0-0.468,0.501-0.468,0.756C12.414,2.623,12.462,3.085,12.883,3.085"/>
		<g>
			<path fill="#FFFFFF" d="M10.963,6.492c0-0.035-0.013-0.049-0.03-0.049c-0.025,0-0.034,0.02-0.034,0.043v0.196h-0.082v-0.19
				c0-0.038-0.016-0.049-0.028-0.049c-0.026,0-0.035,0.025-0.035,0.065v0.174h-0.083V6.439c0-0.03,0-0.051-0.001-0.063h0.073
				c0.002,0.013,0.002,0.031,0.002,0.051h0.002c0.012-0.034,0.033-0.056,0.074-0.056c0.039,0,0.061,0.02,0.071,0.05
				c0.011-0.028,0.03-0.05,0.072-0.05c0.061,0,0.079,0.048,0.079,0.109v0.204h-0.081"/>
			<path fill="#FFFFFF" d="M11.329,6.553h-0.157c0,0.037,0.021,0.07,0.067,0.07c0.026,0,0.056-0.011,0.076-0.022l0.002,0.07
				c-0.028,0.014-0.059,0.019-0.087,0.019c-0.094,0-0.136-0.065-0.136-0.161c0-0.082,0.042-0.157,0.12-0.157
				c0.023,0,0.115,0,0.115,0.161 M11.255,6.503c0-0.039-0.009-0.075-0.042-0.075c-0.042,0-0.042,0.059-0.042,0.075H11.255z"/>
			<path fill="#FFFFFF" d="M11.377,6.439c0-0.03,0-0.05-0.001-0.063h0.074c0,0.017,0.002,0.035,0.002,0.056h0.001
				c0.016-0.031,0.026-0.062,0.074-0.062h0.012v0.087c-0.009-0.003-0.016-0.006-0.028-0.006c-0.046,0-0.053,0.05-0.053,0.095v0.14
				h-0.081"/>
			<path fill="#FFFFFF" d="M11.581,6.239h0.081v0.082h-0.081 M11.581,6.375h0.081v0.308h-0.081V6.375z"/>
			<path fill="#FFFFFF" d="M11.91,6.676c-0.022,0.009-0.046,0.014-0.074,0.014c-0.101,0-0.126-0.101-0.126-0.157
				c0-0.095,0.046-0.161,0.134-0.161c0.025,0,0.042,0.008,0.064,0.014l-0.004,0.073c-0.016-0.01-0.031-0.015-0.047-0.015
				c-0.062,0-0.062,0.077-0.062,0.089c0,0.066,0.036,0.088,0.067,0.088c0.016,0,0.032-0.008,0.046-0.014"/>
			<path fill="#FFFFFF" d="M11.969,6.388c0.021-0.007,0.058-0.019,0.085-0.019c0.093,0,0.116,0.046,0.116,0.113v0.112
				c0,0.048,0,0.065,0.001,0.088h-0.074l-0.001-0.042h-0.001c-0.003,0.021-0.034,0.049-0.072,0.049
				c-0.051,0-0.084-0.038-0.084-0.095c0-0.104,0.104-0.104,0.132-0.104h0.025c0-0.059-0.038-0.059-0.05-0.059
				c-0.02,0-0.041,0.006-0.074,0.027 M12.096,6.534c-0.031,0-0.083,0.002-0.083,0.054c0,0.041,0.027,0.041,0.035,0.041
				c0.007,0,0.048,0,0.048-0.076V6.534z"/>
			<path fill="#FFFFFF" d="M12.386,6.452c-0.022-0.011-0.041-0.019-0.065-0.019c-0.02,0-0.029,0.013-0.029,0.021
				c0,0.021,0.011,0.025,0.058,0.046c0.027,0.012,0.055,0.029,0.055,0.09c0,0.069-0.043,0.097-0.1,0.097
				c-0.023,0-0.06-0.003-0.087-0.016l0.002-0.071c0.021,0.014,0.043,0.02,0.067,0.02c0.038,0,0.041-0.016,0.041-0.029
				c0-0.012-0.021-0.021-0.057-0.036c-0.028-0.014-0.057-0.039-0.057-0.095c0-0.033,0.02-0.093,0.101-0.093
				c0.034,0,0.062,0.008,0.076,0.012"/>
			<line fill="none" x1="14.117" y1="6.063" x2="10.313" y2="6.063"/>
			<rect x="10.313" y="6.046" fill="#FFFFFF" width="3.804" height="0.038"/>
			<path fill="#FFFFFF" d="M8.021,6.492h0.047c0.027,0,0.047,0.016,0.047,0.051c0,0.025-0.014,0.041-0.03,0.045l0,0
				C8.091,6.59,8.097,6.593,8.102,6.61l0.021,0.072H8.091L8.077,6.622c-0.003-0.014-0.011-0.02-0.021-0.02H8.049v0.082H8.021
				 M8.06,6.574c0.017,0,0.025-0.008,0.025-0.027c0-0.022-0.01-0.026-0.025-0.026H8.049v0.057H8.06V6.574z"/>
			<polyline fill="#FFFFFF" points="8.132,6.492 8.212,6.492 8.212,6.521 8.161,6.521 8.161,6.57 8.211,6.57 8.211,6.599 
				8.161,6.599 8.161,6.655 8.216,6.655 8.216,6.685 8.132,6.685 			"/>
			<path fill="#FFFFFF" d="M8.292,6.576h0.049v0.1C8.334,6.683,8.321,6.687,8.3,6.687c-0.049,0-0.075-0.042-0.075-0.099
				C8.226,6.53,8.251,6.49,8.3,6.49c0.02,0,0.031,0.006,0.037,0.01L8.335,6.53C8.328,6.522,8.315,6.519,8.3,6.519
				c-0.029,0-0.045,0.029-0.045,0.069c0,0.043,0.015,0.069,0.043,0.069c0.007,0,0.013-0.002,0.018-0.004V6.604H8.292"/>
			<rect x="8.363" y="6.492" fill="#FFFFFF" width="0.027" height="0.19"/>
			<path fill="#FFFFFF" d="M8.467,6.49c0.032,0,0.061,0.027,0.061,0.098c0,0.067-0.028,0.099-0.061,0.099S8.406,6.655,8.406,6.588
				S8.436,6.49,8.467,6.49 M8.467,6.658c0.019,0,0.032-0.019,0.032-0.07c0-0.051-0.015-0.072-0.032-0.072S8.435,6.537,8.435,6.588
				C8.435,6.641,8.449,6.658,8.467,6.658"/>
			<polyline fill="#FFFFFF" points="8.542,6.492 8.575,6.492 8.626,6.643 8.628,6.643 8.628,6.492 8.653,6.492 8.653,6.685 
				8.62,6.685 8.57,6.534 8.568,6.534 8.568,6.685 8.542,6.685 			"/>
			<path fill="#FFFFFF" d="M8.75,6.637H8.699L8.688,6.685H8.66l0.051-0.192h0.03l0.05,0.192H8.761 M8.744,6.61l-0.019-0.09l0,0
				L8.703,6.61H8.744z"/>
			<polyline fill="#FFFFFF" points="8.796,6.492 8.823,6.492 8.823,6.655 8.873,6.655 8.873,6.685 8.796,6.685 			"/>
			<path fill="#FFFFFF" d="M8.984,6.49c0.032,0,0.061,0.027,0.061,0.098c0,0.067-0.028,0.099-0.061,0.099
				c-0.033,0-0.061-0.031-0.061-0.099C8.921,6.521,8.952,6.49,8.984,6.49 M8.984,6.658c0.017,0,0.032-0.019,0.032-0.07
				c0-0.051-0.017-0.072-0.032-0.072c-0.019,0-0.032,0.021-0.032,0.072C8.952,6.641,8.966,6.658,8.984,6.658"/>
			<polyline fill="#FFFFFF" points="9.06,6.492 9.137,6.492 9.137,6.521 9.088,6.521 9.088,6.572 9.136,6.572 9.136,6.601 
				9.088,6.601 9.088,6.685 9.06,6.685 			"/>
			<polyline fill="#FFFFFF" points="9.15,6.492 9.228,6.492 9.228,6.521 9.178,6.521 9.178,6.572 9.224,6.572 9.224,6.601 
				9.178,6.601 9.178,6.685 9.15,6.685 			"/>
			<rect x="9.242" y="6.492" fill="#FFFFFF" width="0.026" height="0.19"/>
			<path fill="#FFFFFF" d="M9.387,6.68C9.383,6.685,9.369,6.687,9.354,6.687c-0.045,0-0.069-0.042-0.069-0.099
				c0-0.056,0.024-0.098,0.069-0.098c0.017,0,0.028,0.006,0.033,0.008L9.385,6.53C9.38,6.526,9.369,6.518,9.356,6.518
				c-0.022,0-0.043,0.021-0.043,0.068c0,0.049,0.02,0.067,0.043,0.067c0.014,0,0.021-0.003,0.028-0.009"/>
			<polyline fill="#FFFFFF" points="9.401,6.492 9.482,6.492 9.482,6.521 9.43,6.521 9.43,6.57 9.478,6.57 9.478,6.599 9.43,6.599 
				9.43,6.655 9.483,6.655 9.483,6.685 9.401,6.685 			"/>
			<polyline fill="#FFFFFF" points="9.545,6.492 9.622,6.492 9.622,6.521 9.574,6.521 9.574,6.572 9.621,6.572 9.621,6.601 
				9.574,6.601 9.574,6.685 9.545,6.685 			"/>
			<path fill="#FFFFFF" d="M9.69,6.49c0.032,0,0.062,0.027,0.062,0.098c0,0.067-0.03,0.099-0.062,0.099
				c-0.029,0-0.061-0.031-0.061-0.099S9.66,6.49,9.69,6.49 M9.69,6.658c0.02,0,0.032-0.019,0.032-0.07
				c0-0.051-0.014-0.072-0.032-0.072c-0.017,0-0.031,0.021-0.031,0.072C9.658,6.641,9.673,6.658,9.69,6.658"/>
			<path fill="#FFFFFF" d="M9.765,6.492h0.047c0.028,0,0.047,0.016,0.047,0.051c0,0.025-0.013,0.041-0.029,0.045l0,0
				C9.834,6.59,9.841,6.593,9.847,6.61l0.021,0.072h-0.03L9.82,6.622c-0.003-0.016-0.011-0.02-0.021-0.02H9.794v0.082H9.766
				 M9.804,6.574c0.017,0,0.025-0.008,0.025-0.027c0-0.022-0.008-0.026-0.025-0.026H9.794v0.057h0.009V6.574z"/>
			<polyline fill="#FFFFFF" points="9.933,6.521 9.9,6.521 9.9,6.492 9.995,6.492 9.995,6.521 9.961,6.521 9.961,6.685 9.933,6.685 
							"/>
			<polyline fill="#FFFFFF" points="10.005,6.492 10.034,6.492 10.034,6.57 10.079,6.57 10.079,6.492 10.106,6.492 10.106,6.685 
				10.079,6.685 10.079,6.599 10.034,6.599 10.034,6.685 10.005,6.685 			"/>
			<polyline fill="#FFFFFF" points="10.127,6.492 10.208,6.492 10.208,6.521 10.157,6.521 10.157,6.57 10.206,6.57 10.206,6.599 
				10.157,6.599 10.157,6.655 10.21,6.655 10.21,6.685 10.127,6.685 			"/>
			<path fill="#FFFFFF" d="M9.738,4.788c0.041,0.05,0.11,0.078,0.15,0.126c-0.027-0.143-0.14-0.257-0.267-0.283
				C9.683,4.678,9.696,4.743,9.738,4.788 M8.172,5.149c0.09-0.191,0.223-0.153,0.28-0.337C8.42,4.866,8.274,4.892,8.206,5.035
				C8.241,4.95,8.224,4.816,8.282,4.747C8.107,4.876,8.182,5.083,8.172,5.149 M8.334,5.611c0.017,0.074-0.031,0.184,0.043,0.287
				c-0.078-0.086-0.242-0.107-0.31-0.239C8.151,5.98,8.372,5.913,8.47,5.983C8.39,5.868,8.455,5.791,8.334,5.611 M8.31,5.813
				c-0.049-0.179,0.037-0.24-0.028-0.414C8.274,5.497,8.209,5.544,8.254,5.72C8.176,5.571,8.056,5.514,8.021,5.412
				C8.023,5.693,8.251,5.735,8.31,5.813 M8.66,6.112C8.593,6.021,8.64,5.969,8.45,5.801C8.49,5.862,8.448,5.939,8.575,6.06
				C8.452,5.985,8.279,6.018,8.196,5.919C8.339,6.19,8.589,6.08,8.66,6.112 M9.575,6.06c0.127-0.12,0.087-0.197,0.126-0.259
				c-0.188,0.167-0.143,0.221-0.21,0.31c0.069-0.032,0.321,0.078,0.464-0.191C9.873,6.018,9.7,5.985,9.575,6.06 M9.774,5.898
				c0.075-0.102,0.027-0.213,0.043-0.287C9.696,5.791,9.762,5.868,9.68,5.983C9.781,5.913,10,5.98,10.084,5.659
				C10.016,5.791,9.851,5.813,9.774,5.898 M9.472,6.126c-0.074-0.021-0.15-0.029-0.207-0.031c-0.07-0.002-0.134,0.011-0.188,0.031
				C9.022,6.104,8.959,6.093,8.889,6.095C8.832,6.097,8.754,6.105,8.683,6.126c-0.116,0.028-0.214,0.053-0.299,0.01
				c0.082,0.071,0.179,0.099,0.318,0.083C8.815,6.205,8.909,6.15,9.017,6.15c0.001,0,0.003,0,0.005,0
				c-0.115,0.057-0.18,0.137-0.18,0.137l0.052,0.01c0,0,0.056-0.11,0.183-0.141C9.203,6.185,9.26,6.297,9.26,6.297l0.052-0.01
				c0,0-0.063-0.08-0.178-0.137c0.002,0,0.002,0,0.004,0c0.108,0,0.201,0.057,0.317,0.068C9.593,6.234,9.689,6.205,9.77,6.136
				C9.683,6.179,9.585,6.154,9.472,6.126 M8.29,5.205C8.242,5.296,8.17,5.314,8.177,5.498C8.138,5.336,8.044,5.274,8.045,5.17
				C7.979,5.442,8.155,5.475,8.199,5.59C8.192,5.427,8.298,5.393,8.29,5.205 M8.355,4.993c-0.017,0.024-0.027,0.035-0.071,0.07
				c-0.06,0.048-0.107,0.11-0.127,0.206c0.003-0.102-0.06-0.245-0.018-0.347c-0.16,0.221,0.009,0.355,0.017,0.436
				C8.196,5.202,8.292,5.202,8.355,4.993 M9.995,5.27C9.975,5.174,9.928,5.113,9.87,5.063c-0.043-0.035-0.057-0.046-0.071-0.07
				c0.061,0.211,0.157,0.211,0.199,0.365c0.005-0.08,0.175-0.215,0.015-0.436C10.053,5.024,9.99,5.167,9.995,5.27 M10.131,5.412
				C10.096,5.514,9.978,5.571,9.899,5.72c0.044-0.178-0.021-0.224-0.028-0.321C9.807,5.572,9.892,5.632,9.844,5.813
				C9.901,5.735,10.129,5.693,10.131,5.412 M9.862,5.205C9.853,5.393,9.96,5.425,9.953,5.59c0.044-0.115,0.219-0.146,0.153-0.42
				c0.002,0.104-0.094,0.166-0.132,0.328C9.982,5.314,9.91,5.296,9.862,5.205 M8.415,4.788c0.04-0.045,0.054-0.11,0.118-0.157
				C8.401,4.657,8.292,4.771,8.262,4.914C8.303,4.866,8.373,4.838,8.415,4.788 M9.7,4.813c0.058,0.183,0.188,0.144,0.281,0.337
				c-0.011-0.064,0.064-0.271-0.111-0.4c0.059,0.07,0.042,0.203,0.077,0.289C9.878,4.892,9.731,4.866,9.7,4.813 M9.245,4.917
				C9.213,4.902,9.178,4.892,9.141,4.889c0,0.007,0,0.014,0,0.023c0.033,0.005,0.067,0.013,0.097,0.025
				C9.242,4.932,9.243,4.925,9.245,4.917 M9.217,4.688l0.007-0.006L9.211,4.676H9.176l-0.01,0.007L9.146,4.682v0.004
				c0.014,0,0.026,0.002,0.037,0.003L9.2,4.688L9.217,4.688z M9.148,5.452c0-0.006-0.008-0.012-0.021-0.018H9.126
				c0,0.006,0,0.026-0.002,0.04C9.141,5.469,9.148,5.461,9.148,5.452 M8.734,5.002C8.736,4.997,8.736,4.993,8.738,4.99
				c-0.006,0.002-0.01,0.002-0.015,0.002L8.734,5.002z M9.076,6.044c0.404,0,0.73-0.324,0.73-0.723c0-0.373-0.289-0.683-0.656-0.717
				c0,0,0,0.001,0,0.003C9.148,4.614,9.146,4.621,9.146,4.625c0.167,0.02,0.314,0.092,0.426,0.197l-0.081,0.08l0.001-0.014
				L9.481,4.885L9.467,4.883l0.001-0.009L9.462,4.841L9.442,4.819L9.38,4.788L9.374,4.792L9.361,4.796
				C9.383,4.828,9.396,4.864,9.396,4.9c0,0.004,0,0.01,0,0.017l0.03,0.037L9.412,4.958L9.42,4.971L9.395,4.999L9.383,4.978
				C9.378,4.992,9.37,5.006,9.362,5.018C9.364,5.022,9.365,5.022,9.37,5.024L9.283,5.109C9.279,5.104,9.274,5.099,9.268,5.094
				C9.259,5.099,9.251,5.102,9.243,5.105C9.244,5.107,9.249,5.109,9.25,5.111L9.247,5.113L9.237,5.12L9.232,5.131L9.228,5.124
				l-0.02,0.005l0.005,0.008l0.011-0.003h0.008V5.131l0.007-0.004l0.002-0.003L9.253,5.12h0.009
				c0.001,0.002,0.002,0.004,0.005,0.005L9.233,5.157L9.232,5.153L9.197,5.161L9.188,5.167L9.18,5.168l0.022-0.021L9.194,5.144
				L9.174,5.169h0.004v0.013l0.008,0.004v0.01L9.176,5.191L9.161,5.193L9.132,5.175c0,0-0.001,0.083-0.001,0.125
				C9.202,5.323,9.28,5.36,9.28,5.45c0,0.041-0.019,0.071-0.052,0.1l0,0l0,0l0,0c-0.002,0-0.002,0.002-0.002,0.002
				c-0.03,0.021-0.069,0.029-0.101,0.04L9.122,5.653c0.054,0.024,0.116,0.064,0.111,0.17C9.232,5.851,9.221,5.856,9.213,5.86l0,0
				C9.182,5.867,9.151,5.875,9.117,5.875c-0.001,0.01-0.001,0.018-0.001,0.022C9.258,5.89,9.385,5.831,9.481,5.74l0.085,0.083
				C9.439,5.945,9.266,6.02,9.076,6.02c-0.187,0-0.36-0.074-0.487-0.194l0.085-0.083c0.094,0.089,0.221,0.145,0.358,0.155
				c0-0.006,0-0.017,0-0.022c-0.131-0.011-0.25-0.064-0.341-0.15l0.021-0.021l0.032,0.003l0.017-0.018l0.044,0.002l0.007-0.016
				L8.811,5.672C8.873,5.718,8.95,5.747,9.033,5.755c0-0.008,0-0.017-0.002-0.021C8.94,5.723,8.857,5.685,8.794,5.625L8.88,5.542
				C8.9,5.562,8.925,5.575,8.949,5.588c0.002-0.007,0.004-0.016,0.008-0.021c-0.021-0.012-0.042-0.023-0.06-0.041l0.083-0.084
				c0.014,0.012,0.03,0.021,0.046,0.024c0-0.009,0-0.018,0-0.024c-0.01-0.004-0.021-0.012-0.028-0.018L9.024,5.4
				c-0.008,0-0.018-0.004-0.025-0.008L8.981,5.411C8.973,5.4,8.967,5.391,8.96,5.381C8.945,5.374,8.934,5.368,8.919,5.36
				C8.867,5.327,8.84,5.278,8.84,5.218c0-0.047,0.015-0.081,0.033-0.108L8.79,5.026c0.061-0.06,0.14-0.099,0.227-0.11
				c0-0.01,0-0.016,0-0.023C8.92,4.906,8.837,4.948,8.773,5.011L8.757,4.992C8.753,4.997,8.749,5.004,8.746,5.013l0.007,0.01
				C8.682,5.099,8.637,5.2,8.635,5.314H8.514c0.001-0.146,0.061-0.279,0.157-0.376l0.037,0.036c0.001,0,0.003,0,0.005,0
				c0.008,0,0.015-0.002,0.021-0.007L8.688,4.922c0.025-0.023,0.051-0.048,0.082-0.065c0.004-0.009,0.005-0.016,0.007-0.019
				c0.001-0.002,0.008-0.014,0.019-0.023C8.749,4.839,8.707,4.87,8.67,4.904L8.584,4.821c0.11-0.104,0.26-0.179,0.422-0.196
				C9.004,4.623,9.004,4.621,9.004,4.621C9.002,4.615,9.002,4.609,9,4.604C8.633,4.641,8.347,4.948,8.347,5.321
				C8.346,5.72,8.674,6.044,9.076,6.044 M9.234,5.546V5.544V5.546L9.234,5.546 M9.589,4.839c0.12,0.125,0.193,0.292,0.194,0.476
				H9.662c0-0.094-0.023-0.18-0.062-0.252l0.002-0.006l0.008,0.006l0.002-0.008l-0.02-0.037L9.565,4.984L9.537,4.961
				C9.525,4.946,9.516,4.936,9.504,4.924L9.589,4.839z M9.437,4.992h0.028l0.007,0.009L9.468,5.013l0.041,0.025l0.007-0.003
				l0.052,0.06l0.021-0.006c0.034,0.068,0.053,0.145,0.053,0.226h-0.12C9.52,5.283,9.517,5.253,9.51,5.224l0.005-0.01l0.008-0.037
				L9.519,5.138L9.501,5.094l-0.034-0.05L9.476,5.05l0.003-0.006L9.453,5.028L9.451,5.031l0.025,0.04l0.017,0.03l0.012,0.03
				l0.002,0.021l0.005,0.036h-0.01c0,0-0.012-0.021-0.017-0.03l0.006-0.008L9.481,5.135V5.122L9.475,5.113l-0.01,0.002
				c-0.004-0.008-0.007-0.012-0.01-0.021l0.006,0.004l0.002-0.002L9.46,5.092L9.47,5.086L9.466,5.081L9.455,5.086l0.003-0.021H9.451
				L9.443,5.079C9.432,5.06,9.417,5.043,9.399,5.024L9.437,4.992z M9.411,5.271l0.021-0.013l0.021-0.003l0.004-0.01L9.47,5.236
				l0.004-0.009l0.003-0.021c0.002,0.007,0.005,0.014,0.005,0.021L9.471,5.264v0.011l0.017-0.023
				c0.004,0.02,0.006,0.043,0.008,0.062H9.39L9.389,5.306L9.4,5.294l0.001-0.006l0.006-0.003l0.015-0.002l0.002-0.009L9.411,5.271z
				 M9.266,5.189l0.012-0.004l0,0L9.266,5.175l0.003-0.02l0.013-0.012c0.01,0.008,0.017,0.019,0.021,0.025L9.301,5.186L9.29,5.174
				L9.279,5.176l0.004,0.01H9.29L9.283,5.197L9.281,5.193L9.266,5.189z M9.314,5.582L9.286,5.575L9.28,5.579L9.264,5.567L9.25,5.562
				c0.007-0.006,0.013-0.01,0.021-0.016l0.021,0.016l0.017,0.01l0.008,0.008L9.314,5.582z M9.3,5.125l0.085-0.083
				c0.02,0.021,0.037,0.043,0.053,0.067l-0.01,0.004v0.019L9.46,5.153c0.007,0.016,0.014,0.034,0.021,0.052L9.474,5.214l-0.01,0.008
				L9.461,5.239l-0.01,0.002L9.445,5.249L9.438,5.247L9.426,5.246l0.007-0.01l0.004-0.021l0.009-0.006L9.424,5.188L9.407,5.193
				L9.402,5.209L9.391,5.221l-0.01-0.01L9.376,5.202l0.007-0.005l0.002,0.007l0.005-0.002L9.39,5.193L9.383,5.191L9.381,5.195
				L9.376,5.197L9.351,5.166l-0.01-0.007l0.004-0.004l0.008-0.002L9.346,5.149l-0.01,0.002l0.005,0.008H9.326
				C9.318,5.147,9.31,5.135,9.3,5.125 M9.344,5.572L9.333,5.56L9.34,5.548l0.012-0.021L9.347,5.52l0.009-0.019L9.354,5.488
				L9.349,5.473l-0.01-0.002L9.335,5.478L9.33,5.477c0.009-0.014,0.019-0.025,0.024-0.044l0.012-0.002l0.006-0.01l0.004,0.004
				l0.007-0.009L9.377,5.408l0.005-0.002l0.01,0.004h0.02l0.011-0.004l0.029-0.01l-0.006-0.01L9.443,5.375l0.017,0.007l0.005-0.003
				L9.463,5.368L9.441,5.374L9.42,5.371L9.403,5.338h0.094c-0.005,0.104-0.05,0.199-0.116,0.27L9.366,5.596l0.006-0.019L9.364,5.541
				L9.344,5.572z M9.358,5.801l0.013-0.022l-0.004-0.01l0.017-0.016V5.746L9.37,5.736l0.012-0.022l0.017-0.021l-0.017-0.02H9.367
				L9.358,5.66C9.365,5.653,9.373,5.649,9.38,5.642l0.083,0.084C9.433,5.755,9.397,5.78,9.358,5.801 M9.464,5.691l0.01-0.01
				L9.466,5.636L9.459,5.632l0.003-0.009L9.442,5.618L9.439,5.636L9.437,5.656L9.433,5.66L9.396,5.624
				C9.47,5.55,9.514,5.448,9.519,5.339h0.12C9.635,5.479,9.575,5.612,9.481,5.71L9.464,5.691z M9.498,5.725
				C9.597,5.623,9.66,5.488,9.662,5.338h0.122C9.779,5.52,9.703,5.686,9.584,5.809L9.498,5.725z M8.776,5.609
				C8.767,5.6,8.759,5.592,8.75,5.582l0.003-0.03L8.742,5.523L8.739,5.478L8.726,5.45l0.002-0.016L8.711,5.4L8.695,5.395
				l0.007-0.018L8.695,5.362l0.007-0.016h0.016l0.006-0.009h0.027l0.004,0.009L8.75,5.374L8.748,5.379L8.757,5.4L8.75,5.406
				L8.746,5.398L8.744,5.4l0.004,0.014l0.009,0.017h0.003l0.003-0.015L8.759,5.41V5.4L8.757,5.382l0.007-0.035L8.757,5.338h0.021
				C8.783,5.41,8.814,5.477,8.862,5.524L8.776,5.609z M8.697,5.377l-0.011,0.02H8.665V5.395c-0.003-0.02-0.007-0.038-0.007-0.057
				h0.035L8.686,5.366L8.697,5.377z M8.736,5.297l0.003-0.024l0.014-0.007l0.025,0.005l0.003,0.002
				C8.779,5.289,8.778,5.3,8.778,5.316H8.749L8.736,5.297z M8.858,5.387l0.005-0.005L8.88,5.395L8.873,5.4l0.019,0.012L8.89,5.4
				l0.01-0.019l0.01,0.011l0.01,0.017L8.9,5.412l0.008,0.019l0.013-0.008L8.92,5.418L8.93,5.411l0.007-0.024
				c0.007,0.016,0.016,0.027,0.026,0.042L8.877,5.513c-0.042-0.042-0.067-0.1-0.075-0.16L8.82,5.374h0.016L8.858,5.387z
				 M8.771,5.038l0.085,0.084c-0.02,0.02-0.033,0.043-0.044,0.065L8.805,5.186L8.792,5.191L8.79,5.189L8.776,5.2l0.017-0.001
				l0.015-0.004c0,0.002-0.001,0.004-0.001,0.005L8.792,5.207H8.787l-0.02,0.017l-0.02-0.003L8.723,5.27l0.005,0.009L8.713,5.294
				L8.712,5.313H8.658C8.66,5.207,8.702,5.111,8.771,5.038 M8.662,5.672l0.026,0.015l0.005,0.006L8.674,5.71
				C8.665,5.701,8.657,5.691,8.648,5.682L8.662,5.672z M8.635,5.338c0,0.011,0.001,0.022,0.001,0.034L8.624,5.375L8.62,5.391
				l-0.031,0.04l0.001,0.052l-0.033,0.01H8.541C8.524,5.443,8.515,5.391,8.514,5.339L8.635,5.338L8.635,5.338z M8.515,5.491
				L8.509,5.49L8.502,5.481L8.469,5.479l0.01,0.014l-0.03-0.005l0.006-0.009L8.448,5.473l-0.022,0.01L8.417,5.497l0.003,0.035
				l0.026,0.062l0.012,0.019l0.008,0.003l-0.02-0.037L8.441,5.558l0.005-0.006l-0.004-0.01l0.011,0.002L8.472,5.57l0.006,0.003
				V5.552l0.008,0.006L8.487,5.57l0.018,0.004L8.514,5.57l0.002,0.002L8.515,5.585l0.01,0.011l0.011,0.002l0.02,0.036L8.572,5.64
				l0.003-0.019C8.598,5.659,8.627,5.694,8.66,5.725L8.573,5.811C8.451,5.688,8.374,5.521,8.37,5.338h0.12
				C8.492,5.391,8.5,5.442,8.515,5.491 M8.568,4.838l0.085,0.084c-0.1,0.103-0.162,0.241-0.164,0.391H8.37
				C8.372,5.131,8.447,4.962,8.568,4.838 M9.437,4.792L9.43,4.783L9.414,4.774L9.399,4.785l0.018,0.007l0.017,0.015L9.437,4.792z
				 M9.364,5.129v0.01l0.021-0.007L9.391,5.12L9.377,5.102l0.007-0.013l0.02,0.015l0.003-0.005L9.404,5.097L9.399,5.089l0.008-0.006
				L9.399,5.071L9.381,5.084l-0.005,0.01L9.373,5.105L9.38,5.12L9.376,5.127L9.364,5.129z M8.496,5.661l0.002-0.006L8.486,5.634
				L8.473,5.628L8.496,5.661z M8.986,5.216c0,0.021,0.013,0.033,0.035,0.046c0,0,0-0.004,0-0.009L9.007,5.238l0.007-0.013
				l0.007-0.002C9.019,5.2,9.019,5.172,9.019,5.168H9.018C8.998,5.184,8.986,5.195,8.986,5.216"/>
			<path fill="#FFFFFF" d="M9.12,5.729C9.159,5.75,9.192,5.775,9.208,5.824c0.006-0.082-0.04-0.118-0.087-0.141L9.12,5.729"/>
			<path fill="#FFFFFF" d="M9.37,4.9c0-0.074-0.055-0.157-0.188-0.184c-0.007-0.002-0.023-0.004-0.04-0.006c0,0.011,0,0.036,0,0.036
				c0,0.009-0.001,0.039-0.001,0.043c0.012,0.002,0.02,0.004,0.025,0.006C9.243,4.813,9.271,4.858,9.271,4.9
				c0,0.069-0.06,0.098-0.136,0.116C9.126,5.021,9.116,5.022,9.109,5.024C9.089,5.029,9.063,5.035,9.04,5.043
				c-0.008,0-0.018,0.004-0.024,0.006C8.934,5.073,8.864,5.115,8.864,5.216s0.081,0.137,0.159,0.16c0-0.027,0-0.058-0.001-0.085
				c-0.035-0.019-0.06-0.039-0.06-0.074S8.983,5.16,9.019,5.146c0.007-0.004,0.016-0.008,0.022-0.011
				c0.021-0.007,0.042-0.012,0.066-0.018c0.008-0.002,0.017-0.004,0.025-0.006C9.247,5.083,9.37,5.05,9.37,4.9"/>
			<path fill="#FFFFFF" d="M8.969,5.609c0,0.04,0.029,0.063,0.06,0.078c0-0.006-0.001-0.068-0.001-0.07
				c0.001-0.012,0.013-0.02,0.023-0.023c0.014-0.006,0.027-0.012,0.046-0.019c0.01-0.003,0.018-0.006,0.024-0.008
				c0.061-0.02,0.132-0.043,0.132-0.115c0-0.073-0.061-0.104-0.125-0.125c0,0.021-0.002,0.058-0.002,0.081
				c0.027,0.01,0.047,0.022,0.047,0.044c0,0.025-0.028,0.041-0.05,0.049C9.115,5.505,9.104,5.509,9.1,5.511
				C9.083,5.516,9.067,5.521,9.051,5.528c-0.01,0.004-0.019,0.007-0.025,0.011C8.998,5.552,8.969,5.572,8.969,5.609"/>
			<path fill="#FFFFFF" d="M9.009,4.721c-0.041,0.013-0.063,0.026-0.072,0.03C8.911,4.76,8.874,4.762,8.836,4.802
				C8.828,4.809,8.814,4.83,8.802,4.848C8.79,4.862,8.788,4.89,8.78,4.904C8.768,4.925,8.772,4.936,8.772,4.936v0.003
				c0,0.002-0.003,0.014-0.015,0.023c-0.013,0.014-0.029,0.022-0.05,0.021c0.02,0.008,0.042-0.005,0.042-0.005
				S8.744,4.992,8.74,5.012c0.019-0.045,0.038-0.06,0.042-0.065C8.791,4.95,8.808,4.948,8.841,4.929
				c0.036-0.021,0.091-0.055,0.106-0.075c0.019-0.021,0.041-0.036,0.066-0.047C9.011,4.775,9.011,4.747,9.009,4.721 M8.852,4.864
				l-0.02,0.004L8.86,4.826h0.026L8.852,4.864z"/>
			<path fill="#FFFFFF" d="M9.084,5.604C9.081,5.605,9.073,5.609,9.066,5.611C9.061,5.614,9.052,5.616,9.052,5.619
				c0,0,0.004,0.313,0.004,0.32c0,0.064,0.034,0.064,0.034,0c0-0.005,0.007-0.342,0.007-0.342S9.09,5.602,9.084,5.604"/>
			<path fill="#FFFFFF" d="M9.051,5.5C9.061,5.497,9.072,5.493,9.08,5.491c0.008-0.003,0.015-0.005,0.021-0.007
				c0-0.021,0.005-0.293,0.007-0.343c-0.026,0.004-0.047,0.012-0.063,0.02C9.044,5.197,9.049,5.473,9.051,5.5"/>
			<path fill="#FFFFFF" d="M9.078,4.452c-0.094,0-0.054,0.14-0.047,0.184c0.002,0.002,0.008,0.309,0.01,0.381
				C9.055,5.013,9.07,5.01,9.083,5.006c0.011-0.004,0.02-0.005,0.028-0.007C9.113,4.93,9.12,4.636,9.12,4.635
				C9.125,4.587,9.174,4.452,9.078,4.452"/>
			<polyline fill="#FFFFFF" points="10.608,4.714 10.607,4.714 10.527,5.144 10.418,5.144 10.316,4.619 10.404,4.619 10.474,5.022 
				10.476,5.022 10.552,4.619 10.665,4.619 10.737,5.022 10.739,5.022 10.813,4.619 10.897,4.619 10.793,5.144 10.683,5.144 			"/>
			<path fill="#FFFFFF" d="M11.05,4.749c0.076,0,0.163,0.039,0.163,0.199c0,0.161-0.088,0.197-0.163,0.197
				c-0.075,0-0.163-0.036-0.163-0.197C10.887,4.788,10.975,4.749,11.05,4.749 M11.05,5.082c0.059,0,0.071-0.069,0.071-0.134
				c0-0.063-0.013-0.134-0.071-0.134c-0.058,0-0.07,0.068-0.07,0.134C10.979,5.013,10.993,5.082,11.05,5.082"/>
			<path fill="#FFFFFF" d="M11.268,4.819c0-0.022,0-0.046-0.001-0.063h0.081c0,0.022,0.002,0.049,0.002,0.069h0.002
				c0.013-0.029,0.038-0.075,0.094-0.075c0.007,0,0.01,0.002,0.016,0.002v0.088c-0.007-0.001-0.016-0.003-0.024-0.003
				c-0.037,0-0.078,0.021-0.078,0.094v0.214h-0.09"/>
			<rect x="11.517" y="4.581" fill="#FFFFFF" width="0.089" height="0.563"/>
			<path fill="#FFFFFF" d="M11.979,4.581v0.492c0,0.03,0.002,0.055,0.004,0.068h-0.085c-0.001-0.012-0.003-0.034-0.003-0.061h-0.001
				c-0.017,0.032-0.041,0.064-0.1,0.064c-0.092,0-0.129-0.092-0.129-0.197c0-0.126,0.047-0.199,0.127-0.199
				c0.055,0,0.082,0.032,0.096,0.061h0.002V4.581 M11.818,5.08c0.053,0,0.071-0.062,0.071-0.134c0-0.074-0.02-0.13-0.069-0.13
				c-0.051,0-0.067,0.05-0.067,0.128C11.754,5.033,11.768,5.08,11.818,5.08"/>
			<polyline fill="#FFFFFF" points="12.273,4.619 12.365,4.619 12.365,4.83 12.514,4.83 12.514,4.619 12.607,4.619 12.607,5.144 
				12.514,5.144 12.514,4.91 12.365,4.91 12.365,5.144 12.273,5.144 			"/>
			<path fill="#FFFFFF" d="M12.95,5.122c-0.02,0.009-0.059,0.023-0.111,0.023c-0.12,0-0.172-0.089-0.172-0.191
				c0-0.115,0.058-0.205,0.153-0.205c0.08,0,0.147,0.049,0.147,0.207v0.018h-0.215c0,0.066,0.025,0.106,0.094,0.106
				c0.057,0,0.081-0.018,0.098-0.03 M12.883,4.916c0-0.068-0.021-0.104-0.062-0.104c-0.046,0-0.067,0.052-0.067,0.104H12.883z"/>
			<path fill="#FFFFFF" d="M13.049,4.779c0.025-0.013,0.062-0.028,0.118-0.028c0.115,0,0.142,0.06,0.142,0.153v0.169
				c0,0.028,0.003,0.056,0.005,0.07h-0.081c-0.004-0.017-0.005-0.036-0.005-0.055h-0.002c-0.021,0.031-0.052,0.059-0.104,0.059
				c-0.057,0-0.111-0.04-0.111-0.112c0-0.104,0.083-0.133,0.198-0.133h0.017V4.89c0-0.039-0.017-0.072-0.068-0.072
				c-0.044,0-0.085,0.021-0.101,0.035 M13.223,4.952h-0.006c-0.077,0-0.123,0.017-0.123,0.072c0,0.035,0.021,0.061,0.058,0.061
				c0.055,0,0.072-0.043,0.072-0.111L13.223,4.952L13.223,4.952z"/>
			<rect x="13.396" y="4.581" fill="#FFFFFF" width="0.09" height="0.563"/>
			<path fill="#FFFFFF" d="M13.597,4.676l0.089-0.028v0.107h0.076v0.067h-0.076v0.202c0,0.039,0.015,0.051,0.04,0.051
				c0.017,0,0.028-0.002,0.036-0.008v0.064c-0.015,0.007-0.034,0.014-0.061,0.014c-0.066,0-0.104-0.03-0.104-0.112V4.824h-0.06
				V4.757h0.06"/>
			<path fill="#FFFFFF" d="M13.807,4.581h0.087v0.225h0.004c0.016-0.022,0.036-0.057,0.094-0.057c0.083,0,0.107,0.065,0.107,0.141
				v0.252h-0.089V4.91c0-0.062-0.015-0.086-0.052-0.086c-0.046,0-0.064,0.042-0.064,0.093v0.225h-0.087"/>
			<path fill="#FFFFFF" d="M10.515,5.278c0.104,0,0.2,0.082,0.2,0.27s-0.097,0.269-0.2,0.269c-0.106,0-0.202-0.081-0.202-0.269
				S10.409,5.278,10.515,5.278 M10.515,5.744c0.058,0,0.103-0.051,0.103-0.196c0-0.141-0.046-0.193-0.103-0.193
				c-0.06,0-0.106,0.054-0.106,0.193C10.409,5.693,10.455,5.744,10.515,5.744"/>
			<path fill="#FFFFFF" d="M10.774,5.488c0-0.023-0.002-0.046-0.003-0.063h0.081c0,0.022,0.002,0.048,0.002,0.07h0.002
				c0.01-0.03,0.039-0.075,0.095-0.075c0.004,0,0.009,0.001,0.015,0.001v0.088c-0.008-0.004-0.016-0.004-0.025-0.004
				c-0.037,0-0.078,0.021-0.078,0.095v0.213h-0.088"/>
			<path fill="#FFFFFF" d="M11.021,5.869c0.021,0.012,0.062,0.033,0.108,0.033c0.084,0,0.098-0.06,0.098-0.12V5.746l0,0
				c-0.015,0.029-0.041,0.064-0.1,0.064c-0.051,0-0.129-0.036-0.129-0.191c0-0.106,0.037-0.199,0.134-0.199
				c0.053,0,0.079,0.03,0.097,0.064h0.005c0-0.021,0.001-0.04,0.001-0.062h0.082c-0.002,0.021-0.003,0.041-0.003,0.062v0.286
				c0,0.119-0.035,0.205-0.172,0.205c-0.059,0-0.105-0.017-0.127-0.024 M11.162,5.742c0.055,0,0.077-0.043,0.077-0.129
				c0-0.081-0.028-0.125-0.07-0.123c-0.046,0-0.065,0.045-0.065,0.124C11.102,5.703,11.13,5.742,11.162,5.742"/>
			<path fill="#FFFFFF" d="M11.411,5.447c0.026-0.013,0.061-0.027,0.118-0.027c0.116,0,0.142,0.057,0.142,0.153v0.169
				c0,0.028,0.003,0.055,0.005,0.068h-0.081C11.59,5.795,11.59,5.776,11.59,5.755h-0.002c-0.021,0.032-0.05,0.062-0.103,0.062
				c-0.059,0-0.111-0.041-0.111-0.113c0-0.104,0.082-0.131,0.194-0.131h0.019V5.558c0-0.038-0.019-0.073-0.068-0.073
				c-0.046,0-0.083,0.022-0.102,0.037 M11.587,5.621h-0.009c-0.076,0-0.121,0.017-0.121,0.073c0,0.035,0.021,0.059,0.058,0.059
				c0.054,0,0.072-0.041,0.072-0.109V5.621z"/>
			<path fill="#FFFFFF" d="M11.763,5.488c0-0.023-0.002-0.046-0.003-0.063h0.083c0,0.021,0.001,0.04,0.001,0.06h0.003h-0.001
				c0.013-0.021,0.039-0.063,0.099-0.063c0.084,0,0.11,0.063,0.11,0.143v0.248h-0.089V5.579c0-0.06-0.017-0.084-0.052-0.084
				c-0.046,0-0.062,0.042-0.062,0.09v0.226h-0.089"/>
			<path fill="#FFFFFF" d="M12.135,5.262h0.093v0.091h-0.093 M12.137,5.425h0.089v0.386h-0.089V5.425z"/>
			<polyline fill="#FFFFFF" points="12.31,5.729 12.467,5.495 12.315,5.495 12.315,5.425 12.557,5.425 12.557,5.505 12.402,5.74 
				12.562,5.74 12.562,5.811 12.31,5.811 			"/>
			<path fill="#FFFFFF" d="M12.647,5.447c0.025-0.013,0.061-0.027,0.118-0.027c0.114,0,0.142,0.057,0.142,0.153v0.169
				c0,0.028,0.003,0.055,0.005,0.068h-0.081c-0.003-0.016-0.005-0.034-0.005-0.056h-0.001c-0.021,0.032-0.05,0.062-0.104,0.062
				c-0.057,0-0.11-0.041-0.11-0.113c0-0.104,0.083-0.131,0.196-0.131h0.019V5.558c0-0.038-0.019-0.073-0.069-0.073
				c-0.043,0-0.083,0.022-0.101,0.037 M12.822,5.621h-0.006c-0.078,0-0.123,0.017-0.123,0.073c0,0.035,0.021,0.059,0.057,0.059
				c0.054,0,0.072-0.041,0.072-0.109V5.621z"/>
			<path fill="#FFFFFF" d="M13.008,5.347l0.092-0.028v0.106h0.073v0.068h-0.073v0.2c0,0.04,0.013,0.053,0.041,0.053
				c0.016,0,0.025-0.004,0.032-0.01v0.066c-0.013,0.008-0.032,0.014-0.06,0.014c-0.065,0-0.104-0.032-0.104-0.113v-0.21h-0.059
				V5.425h0.059"/>
			<path fill="#FFFFFF" d="M13.233,5.262h0.093v0.091h-0.093 M13.245,5.425h0.089v0.386h-0.089V5.425z"/>
			<path fill="#FFFFFF" d="M13.566,5.42c0.078,0,0.164,0.04,0.164,0.197c0,0.161-0.085,0.199-0.164,0.199
				c-0.076,0-0.161-0.038-0.161-0.199C13.403,5.46,13.49,5.42,13.566,5.42 M13.566,5.75c0.06,0,0.072-0.068,0.072-0.133
				c0-0.065-0.013-0.133-0.072-0.133c-0.057,0-0.07,0.067-0.07,0.133C13.496,5.682,13.509,5.75,13.566,5.75"/>
			<path fill="#FFFFFF" d="M13.809,5.488c0-0.023-0.002-0.046-0.005-0.063h0.085c0,0.021,0.001,0.04,0.001,0.06h0.002h-0.002
				c0.014-0.021,0.04-0.063,0.101-0.063c0.083,0,0.108,0.063,0.108,0.143v0.248h-0.087V5.579c0-0.06-0.014-0.084-0.051-0.084
				c-0.047,0-0.064,0.042-0.064,0.09v0.226h-0.087"/>
			<path fill="#FFFFFF" d="M3.372,4.566H3.52c0.108,0,0.165,0.064,0.165,0.171c0,0.104-0.057,0.171-0.165,0.171H3.467v0.219H3.372
				 M3.503,4.828c0.061,0,0.085-0.031,0.085-0.091c0-0.062-0.026-0.094-0.085-0.094H3.467v0.183h0.036V4.828z"/>
			<path fill="#FFFFFF" d="M3.736,4.739c0.026-0.015,0.063-0.034,0.122-0.034c0.12,0,0.147,0.063,0.147,0.167v0.181
				c0,0.03,0.003,0.059,0.005,0.074H3.927C3.922,5.109,3.921,5.091,3.921,5.069H3.919C3.896,5.104,3.867,5.132,3.812,5.132
				c-0.059,0-0.113-0.043-0.113-0.12c0-0.111,0.084-0.142,0.202-0.142h0.016V4.856c0-0.039-0.018-0.079-0.071-0.079
				c-0.045,0-0.087,0.024-0.105,0.04 M3.917,4.924H3.911c-0.08,0-0.126,0.019-0.126,0.078c0,0.038,0.021,0.062,0.059,0.062
				c0.055,0,0.076-0.043,0.076-0.117L3.917,4.924L3.917,4.924z"/>
			<path fill="#FFFFFF" d="M4.099,4.783c0-0.024-0.001-0.052-0.003-0.067h0.088c0,0.02,0.003,0.043,0.003,0.062h0.002l0,0
				c0.014-0.024,0.04-0.07,0.101-0.07c0.086,0,0.112,0.07,0.112,0.151v0.269H4.311V4.878c0-0.062-0.016-0.09-0.054-0.09
				c-0.049,0-0.065,0.044-0.065,0.099v0.24H4.099"/>
			<path fill="#FFFFFF" d="M4.931,4.992h-0.18L4.713,5.127H4.618l0.175-0.561h0.104l0.168,0.561H4.967 M4.91,4.914L4.844,4.652
				H4.842L4.771,4.914H4.91z"/>
			<path fill="#FFFFFF" d="M5.117,4.781c0-0.028-0.001-0.054-0.002-0.065h0.092c0,0.02,0.002,0.043,0.002,0.063h0.002
				c0.014-0.032,0.044-0.072,0.098-0.072c0.065,0,0.085,0.044,0.098,0.064c0.018-0.028,0.044-0.066,0.101-0.066
				c0.084,0,0.111,0.064,0.111,0.165v0.257H5.527V4.866c0-0.054-0.017-0.078-0.051-0.078c-0.041,0-0.061,0.042-0.061,0.088v0.251
				H5.322V4.866c0-0.054-0.016-0.078-0.05-0.078c-0.041,0-0.063,0.042-0.063,0.088v0.251H5.117"/>
			<path fill="#FFFFFF" d="M5.992,5.107c-0.021,0.008-0.06,0.024-0.116,0.024c-0.124,0-0.178-0.094-0.178-0.207
				c0-0.123,0.062-0.22,0.159-0.22c0.083,0,0.155,0.053,0.155,0.222v0.021H5.788c0,0.068,0.026,0.111,0.099,0.111
				c0.056,0,0.083-0.019,0.101-0.031 M5.92,4.885c0-0.074-0.021-0.111-0.063-0.111c-0.048,0-0.069,0.055-0.069,0.111H5.92z"/>
			<path fill="#FFFFFF" d="M6.093,4.783c0-0.024-0.001-0.052-0.003-0.067h0.085c0,0.023,0.001,0.05,0.001,0.072h0.002
				C6.19,4.759,6.219,4.707,6.277,4.707c0.005,0,0.01,0.002,0.017,0.004v0.091C6.283,4.8,6.276,4.798,6.267,4.798
				c-0.038,0-0.079,0.024-0.079,0.101v0.228H6.093"/>
			<path fill="#FFFFFF" d="M6.369,4.538h0.097v0.099H6.369 M6.369,4.714h0.095v0.411H6.369V4.714z"/>
			<path fill="#FFFFFF" d="M6.824,5.115c-0.021,0.01-0.054,0.017-0.092,0.017c-0.127,0-0.18-0.094-0.18-0.211
				c0-0.119,0.056-0.216,0.186-0.216c0.028,0,0.062,0.012,0.081,0.018L6.814,4.802C6.797,4.792,6.775,4.783,6.75,4.783
				c-0.07,0-0.101,0.049-0.101,0.139c0,0.076,0.034,0.136,0.105,0.136c0.023,0,0.054-0.011,0.066-0.019"/>
			<path fill="#FFFFFF" d="M6.908,4.739C6.934,4.725,6.97,4.705,7.029,4.705c0.12,0,0.146,0.063,0.146,0.167v0.181
				c0,0.03,0.002,0.059,0.006,0.074H7.097C7.093,5.109,7.092,5.091,7.092,5.069H7.091C7.068,5.104,7.039,5.132,6.984,5.132
				c-0.062,0-0.116-0.043-0.116-0.12C6.868,4.9,6.953,4.87,7.07,4.87h0.019V4.856c0-0.039-0.019-0.079-0.072-0.079
				c-0.047,0-0.087,0.024-0.104,0.04 M7.09,4.924H7.082c-0.08,0-0.127,0.019-0.127,0.078c0,0.038,0.024,0.062,0.06,0.062
				c0.057,0,0.076-0.043,0.076-0.117L7.09,4.924L7.09,4.924z"/>
			<path fill="#FFFFFF" d="M7.271,4.783c0-0.024-0.001-0.052-0.003-0.067h0.086c0.001,0.02,0.003,0.043,0.003,0.062h0.002H7.358
				c0.014-0.024,0.04-0.07,0.101-0.07c0.089,0,0.114,0.07,0.114,0.151v0.269H7.481V4.878c0-0.062-0.015-0.09-0.052-0.09
				c-0.05,0-0.066,0.044-0.066,0.099v0.24H7.271"/>
			<polyline fill="#FFFFFF" points="3.376,5.271 3.472,5.271 3.472,5.497 3.626,5.497 3.626,5.271 3.723,5.271 3.723,5.828 
				3.626,5.828 3.626,5.582 3.472,5.582 3.472,5.828 3.376,5.828 			"/>
			<path fill="#FFFFFF" d="M4.11,5.809C4.09,5.817,4.051,5.835,3.994,5.835c-0.124,0-0.179-0.096-0.179-0.207
				c0-0.124,0.062-0.219,0.16-0.219c0.083,0,0.155,0.051,0.155,0.219v0.021H3.907c0,0.07,0.025,0.111,0.098,0.111
				c0.058,0,0.083-0.019,0.101-0.031 M4.04,5.588c0-0.074-0.022-0.111-0.064-0.111c-0.048,0-0.068,0.058-0.068,0.111H4.04z"/>
			<path fill="#FFFFFF" d="M4.228,5.44c0.025-0.014,0.062-0.031,0.122-0.031c0.12,0,0.147,0.063,0.147,0.166v0.18
				c0,0.031,0.002,0.06,0.005,0.073H4.418C4.414,5.813,4.413,5.793,4.413,5.772H4.411C4.387,5.805,4.358,5.835,4.304,5.835
				c-0.061,0-0.116-0.046-0.116-0.119c0-0.114,0.085-0.142,0.202-0.142h0.019V5.558c0-0.04-0.019-0.078-0.072-0.078
				c-0.045,0-0.087,0.023-0.104,0.04 M4.41,5.628H4.401c-0.08,0-0.126,0.019-0.126,0.077c0,0.037,0.022,0.062,0.059,0.062
				c0.057,0,0.076-0.044,0.076-0.117L4.41,5.628L4.41,5.628z"/>
			<rect x="4.599" y="5.228" fill="#FFFFFF" width="0.093" height="0.601"/>
			<path fill="#FFFFFF" d="M4.826,5.332l0.093-0.03v0.114h0.077V5.49H4.919v0.213c0,0.044,0.016,0.058,0.042,0.058
				c0.017,0,0.027-0.006,0.035-0.009v0.069C4.982,5.828,4.962,5.837,4.934,5.837c-0.069,0-0.108-0.034-0.108-0.121V5.49H4.764V5.416
				h0.062"/>
			<path fill="#FFFFFF" d="M5.063,5.228h0.093v0.243h0.002c0.017-0.026,0.039-0.062,0.096-0.062c0.088,0,0.114,0.07,0.114,0.152
				v0.265H5.274V5.581c0-0.062-0.015-0.09-0.053-0.09c-0.049,0-0.064,0.044-0.064,0.099v0.238H5.063"/>
			<path fill="#FFFFFF" d="M3.563,5.962c0.108,0,0.207,0.09,0.207,0.291c0,0.199-0.099,0.287-0.207,0.287
				c-0.107,0-0.208-0.088-0.208-0.287C3.355,6.052,3.455,5.962,3.563,5.962 M3.563,6.46c0.061,0,0.108-0.055,0.108-0.207
				c0-0.154-0.048-0.211-0.108-0.211c-0.061,0-0.109,0.057-0.109,0.211C3.454,6.405,3.502,6.46,3.563,6.46"/>
			<path fill="#FFFFFF" d="M3.857,6.187c0-0.024-0.001-0.051-0.003-0.068h0.083C3.94,6.143,3.942,6.172,3.942,6.194h0.001
				c0.011-0.032,0.041-0.082,0.098-0.082c0.006,0,0.011,0.002,0.015,0.002v0.093C4.049,6.203,4.04,6.203,4.03,6.203
				c-0.038,0-0.08,0.024-0.08,0.102v0.224H3.857"/>
			<path fill="#FFFFFF" d="M4.13,6.595c0.021,0.014,0.064,0.036,0.114,0.036c0.087,0,0.101-0.066,0.101-0.13V6.462h0
				C4.328,6.494,4.301,6.53,4.242,6.53c-0.054,0-0.135-0.038-0.135-0.203c0-0.116,0.039-0.217,0.14-0.217
				c0.058,0,0.082,0.034,0.101,0.071h0.003c0-0.02,0.002-0.044,0.003-0.063h0.083C4.437,6.14,4.435,6.162,4.435,6.184v0.305
				c0,0.129-0.037,0.222-0.178,0.222c-0.062,0-0.11-0.017-0.133-0.025 M4.264,6.459c0.058,0,0.082-0.047,0.082-0.14
				c0-0.087-0.031-0.135-0.076-0.135C4.221,6.188,4.204,6.237,4.204,6.321C4.204,6.417,4.232,6.459,4.264,6.459"/>
			<path fill="#FFFFFF" d="M4.545,6.143c0.026-0.013,0.063-0.03,0.122-0.03c0.121,0,0.147,0.063,0.147,0.165v0.184
				c0,0.027,0.003,0.055,0.005,0.071H4.737C4.732,6.514,4.731,6.496,4.731,6.477H4.729C4.707,6.51,4.677,6.538,4.622,6.538
				c-0.06,0-0.113-0.044-0.113-0.121c0-0.111,0.084-0.143,0.202-0.143h0.019V6.261c0-0.04-0.019-0.077-0.071-0.077
				c-0.045,0-0.087,0.021-0.105,0.039 M4.729,6.329H4.721c-0.08,0-0.126,0.018-0.126,0.078c0,0.037,0.021,0.062,0.059,0.062
				c0.055,0,0.076-0.043,0.076-0.117V6.329L4.729,6.329z"/>
			<path fill="#FFFFFF" d="M4.908,6.187c0-0.024-0.001-0.051-0.003-0.068h0.087c0,0.021,0.004,0.044,0.004,0.063h0.001l0,0
				c0.013-0.025,0.04-0.069,0.101-0.069c0.087,0,0.113,0.069,0.113,0.153V6.53H5.121V6.283c0-0.062-0.017-0.09-0.055-0.09
				c-0.048,0-0.064,0.043-0.064,0.098V6.53H4.908"/>
			<path fill="#FFFFFF" d="M5.312,5.943h0.097v0.099H5.312 M5.313,6.118h0.094v0.414H5.313V6.118z"/>
			<polyline fill="#FFFFFF" points="5.485,6.446 5.649,6.194 5.491,6.194 5.491,6.118 5.742,6.118 5.742,6.203 5.581,6.456 
				5.748,6.456 5.748,6.53 5.485,6.53 			"/>
			<path fill="#FFFFFF" d="M5.836,6.143c0.026-0.013,0.063-0.03,0.123-0.03c0.12,0,0.147,0.063,0.147,0.165v0.184
				c0,0.027,0.003,0.055,0.005,0.071H6.027C6.022,6.514,6.022,6.496,6.022,6.477H6.021C5.998,6.51,5.968,6.538,5.913,6.538
				c-0.06,0-0.115-0.044-0.115-0.121c0-0.111,0.087-0.143,0.203-0.143H6.02V6.261c0-0.04-0.019-0.077-0.071-0.077
				c-0.047,0-0.088,0.021-0.105,0.039 M6.019,6.329H6.011c-0.08,0-0.126,0.018-0.126,0.078c0,0.037,0.021,0.062,0.06,0.062
				C6,6.469,6.02,6.426,6.02,6.352L6.019,6.329L6.019,6.329z"/>
			<path fill="#FFFFFF" d="M6.234,6.034l0.093-0.03v0.114h0.077v0.074H6.327v0.215c0,0.041,0.016,0.056,0.041,0.056
				c0.018,0,0.029-0.005,0.036-0.009v0.07C6.389,6.53,6.369,6.538,6.341,6.538c-0.069,0-0.107-0.033-0.107-0.121V6.192H6.173V6.118
				h0.061"/>
			<path fill="#FFFFFF" d="M6.478,5.943h0.094v0.099H6.478 M6.479,6.118h0.093v0.414H6.479V6.118z"/>
			<path fill="#FFFFFF" d="M6.832,6.112C6.91,6.112,7,6.156,7,6.325C7,6.5,6.91,6.54,6.832,6.54c-0.079,0-0.17-0.04-0.17-0.215
				C6.661,6.156,6.753,6.112,6.832,6.112 M6.832,6.468c0.06,0,0.073-0.074,0.073-0.143S6.89,6.184,6.832,6.184
				c-0.061,0-0.074,0.071-0.074,0.142C6.757,6.394,6.771,6.468,6.832,6.468"/>
			<path fill="#FFFFFF" d="M7.081,6.187c0-0.024-0.001-0.051-0.003-0.068h0.087C7.166,6.14,7.167,6.162,7.167,6.182h0.002l0,0
				c0.015-0.025,0.04-0.069,0.102-0.069c0.087,0,0.114,0.069,0.114,0.153V6.53H7.293V6.283c0-0.062-0.016-0.09-0.054-0.09
				c-0.048,0-0.065,0.043-0.065,0.098V6.53H7.081"/>
			<path fill="#FFFFFF" d="M2.049,6.685c-0.622,0-1.13-0.501-1.13-1.114c0-0.616,0.507-1.116,1.13-1.116
				c0.624,0,1.13,0.502,1.13,1.116C3.179,6.184,2.671,6.685,2.049,6.685 M2.049,4.504c-0.594,0-1.077,0.479-1.077,1.065
				c0,0.585,0.484,1.063,1.077,1.063c0.595,0,1.078-0.479,1.078-1.063C3.128,4.982,2.644,4.504,2.049,4.504"/>
			<path fill="#FFFFFF" d="M2.049,6.378c-0.465,0-0.841-0.362-0.841-0.809c0-0.445,0.377-0.81,0.841-0.81
				c0.464,0,0.842,0.364,0.842,0.81C2.891,6.016,2.513,6.378,2.049,6.378 M2.049,4.817c-0.432,0-0.782,0.338-0.782,0.752
				c0,0.413,0.35,0.752,0.782,0.752c0.433,0,0.784-0.34,0.784-0.752C2.832,5.153,2.481,4.817,2.049,4.817"/>
			<polyline fill="#FFFFFF" points="1.156,5.182 1.171,5.235 1.226,5.235 1.187,5.268 1.201,5.313 1.154,5.276 1.109,5.316 
				1.127,5.268 1.081,5.235 1.135,5.235 			"/>
			<path fill="#FFFFFF" d="M1.206,5.321L1.154,5.278L1.111,5.32L1.106,5.316L1.124,5.27L1.071,5.233l0.062,0.002l0.024-0.063
				l0.017,0.062h0.061L1.189,5.268 M1.09,5.238l0.041,0.027L1.116,5.307l0.039-0.034l0.041,0.033l-0.012-0.04l0.035-0.026H1.169
				L1.156,5.191l-0.02,0.047H1.09z"/>
			<polyline fill="#FFFFFF" points="2.88,5.955 2.895,6.008 2.949,6.008 2.909,6.04 2.924,6.088 2.878,6.05 2.832,6.092 2.851,6.04 
				2.804,6.008 2.858,6.011 			"/>
			<path fill="#FFFFFF" d="M2.93,6.097L2.878,6.054L2.834,6.093L2.829,6.09l0.019-0.05L2.794,6.006h0.063l0.023-0.062l0.018,0.062
				h0.061L2.913,6.04 M2.813,6.012l0.041,0.026L2.839,6.082l0.04-0.036L2.919,6.08L2.906,6.04L2.94,6.014H2.894l-0.015-0.05
				L2.859,6.015L2.813,6.012z"/>
			<polyline fill="#FFFFFF" points="1.215,5.943 1.229,5.998 1.284,5.998 1.243,6.027 1.258,6.076 1.212,6.038 1.167,6.08 
				1.185,6.027 1.139,5.998 1.192,6 			"/>
			<path fill="#FFFFFF" d="M1.263,6.084L1.212,6.042L1.168,6.08L1.165,6.078l0.017-0.049L1.128,5.995L1.19,5.996l0.023-0.062
				l0.018,0.062h0.06L1.247,6.029 M1.149,6l0.04,0.027L1.173,6.069l0.039-0.035l0.041,0.033l-0.012-0.04L1.275,6H1.228L1.214,5.951
				L1.194,6H1.149z"/>
			<polyline fill="#FFFFFF" points="2.947,5.144 2.966,5.195 3.016,5.195 2.976,5.228 2.991,5.274 2.947,5.235 2.899,5.276 
				2.917,5.228 2.871,5.195 2.926,5.197 			"/>
			<path fill="#FFFFFF" d="M2.997,5.283L2.947,5.236L2.901,5.278L2.896,5.276l0.018-0.049L2.861,5.193h0.062l0.024-0.062
				l0.021,0.062h0.055L2.98,5.228 M2.881,5.199l0.04,0.026L2.906,5.27l0.041-0.038l0.038,0.034L2.973,5.228L3.008,5.2H2.965
				L2.947,5.151L2.927,5.2L2.881,5.199z"/>
			<path fill="#FFFFFF" d="M2.116,5.569c0.004,0,0.008,0,0.013,0"/>
			<polyline fill="#FFFFFF" points="1.478,6.203 1.5,6.225 1.388,6.345 1.362,6.321 1.393,6.19 1.393,6.19 1.313,6.275 1.289,6.255 
				1.401,6.134 1.428,6.158 1.397,6.285 1.398,6.285 			"/>
			<path fill="#FFFFFF" d="M2.091,4.715L2.054,4.711L2.13,4.555l0.04,0.006l0.042,0.166L2.176,4.723L2.168,4.688L2.106,4.683
				 M2.118,4.655L2.16,4.659L2.146,4.594l0,0L2.118,4.655z"/>
			<polyline fill="#FFFFFF" points="2.316,4.723 2.395,4.747 2.386,4.775 2.273,4.739 2.326,4.587 2.359,4.597 			"/>
			<path fill="#FFFFFF" d="M2.571,4.822C2.547,4.858,2.516,4.858,2.48,4.838c-0.014-0.01-0.03-0.023-0.034-0.048
				C2.445,4.781,2.45,4.767,2.458,4.753l0.06-0.09l0.031,0.02L2.49,4.77C2.476,4.788,2.482,4.804,2.496,4.813
				c0.02,0.014,0.034,0.009,0.046-0.009l0.059-0.089L2.63,4.733"/>
			<polyline fill="#FFFFFF" points="2.647,4.95 2.62,4.929 2.708,4.826 2.67,4.795 2.689,4.773 2.793,4.858 2.774,4.88 2.736,4.848 
							"/>
			<path fill="#FFFFFF" d="M1.906,4.678c0.002,0.008,0.011,0.025,0.04,0.02c0.017,0,0.033-0.009,0.031-0.022
				c-0.004-0.016-0.017-0.018-0.034-0.02H1.925C1.896,4.652,1.87,4.65,1.864,4.615C1.861,4.597,1.865,4.564,1.92,4.557
				c0.05-0.008,0.068,0.022,0.072,0.042L1.96,4.604c-0.003-0.008-0.01-0.023-0.039-0.02C1.909,4.587,1.894,4.594,1.896,4.609
				C1.898,4.621,1.91,4.623,1.917,4.623l0.042,0.002c0.021,0.004,0.044,0.012,0.05,0.038c0.008,0.05-0.042,0.061-0.056,0.062
				C1.892,4.735,1.876,4.701,1.873,4.682"/>
			<path fill="#FFFFFF" d="M1.528,4.682c0.02-0.011,0.075-0.026,0.111,0.039c0.036,0.067-0.01,0.102-0.031,0.111
				S1.533,4.86,1.497,4.792C1.462,4.727,1.508,4.69,1.528,4.682 M1.595,4.808c0.017-0.01,0.035-0.03,0.014-0.07
				c-0.022-0.04-0.051-0.04-0.067-0.032c-0.017,0.01-0.035,0.032-0.013,0.072C1.549,4.817,1.58,4.817,1.595,4.808"/>
			<path fill="#FFFFFF" d="M1.287,4.878l0.058-0.062c0.031-0.03,0.06-0.016,0.07-0.005c0.013,0.013,0.018,0.029,0.011,0.045
				C1.439,4.851,1.448,4.85,1.47,4.868C1.487,4.887,1.492,4.89,1.499,4.887L1.501,4.89L1.476,4.916
				C1.468,4.912,1.462,4.908,1.449,4.896c-0.017-0.015-0.023-0.02-0.042-0.002L1.383,4.921l0.048,0.043L1.405,4.988 M1.391,4.872
				C1.403,4.858,1.405,4.85,1.393,4.839C1.387,4.832,1.375,4.826,1.361,4.842l-0.031,0.03L1.362,4.9L1.391,4.872z"/>
			<polyline fill="#FFFFFF" points="2.502,6.298 2.531,6.283 2.612,6.422 2.582,6.439 2.464,6.371 2.464,6.371 2.522,6.471 
				2.494,6.486 2.413,6.347 2.445,6.329 2.559,6.396 2.559,6.396 			"/>
			<path fill="#FFFFFF" d="M2.563,6.255l0.058-0.046c0.045-0.032,0.084-0.006,0.103,0.021c0.021,0.026,0.043,0.076-0.002,0.107
				L2.666,6.38 M2.674,6.338l0.027-0.021c0.022-0.016,0.013-0.042-0.005-0.061c-0.03-0.042-0.051-0.029-0.063-0.021l-0.025,0.02
				L2.674,6.338z"/>
			<polyline fill="#FFFFFF" points="2.842,6.23 2.818,6.255 2.693,6.148 2.716,6.122 			"/>
			<polyline fill="#FFFFFF" points="2.895,5.029 2.842,4.961 2.813,4.982 2.863,5.044 2.84,5.063 2.791,4.999 2.756,5.024 
				2.812,5.097 2.788,5.113 2.711,5.017 2.844,4.919 2.918,5.013 			"/>
			<path fill="#FFFFFF" d="M1.587,6.285c0.02,0.013,0.062,0.053,0.018,0.114C1.559,6.462,1.505,6.438,1.487,6.426
				c-0.019-0.014-0.06-0.053-0.016-0.115C1.516,6.249,1.569,6.275,1.587,6.285 M1.504,6.403c0.017,0.009,0.045,0.017,0.07-0.021
				C1.601,6.344,1.586,6.321,1.57,6.31C1.555,6.3,1.527,6.295,1.5,6.331C1.475,6.367,1.489,6.392,1.504,6.403"/>
			<polyline fill="#FFFFFF" points="1.764,6.373 1.797,6.387 1.685,6.519 1.654,6.507 1.662,6.337 1.696,6.348 1.685,6.477 
				1.685,6.477 			"/>
			<polyline fill="#FFFFFF" points="1.821,6.557 1.787,6.548 1.83,6.394 1.863,6.403 			"/>
			<polyline fill="#FFFFFF" points="2.215,6.57 2.184,6.57 2.173,6.438 2.173,6.438 2.151,6.572 2.118,6.576 2.078,6.444 
				2.077,6.444 2.086,6.579 2.054,6.581 2.042,6.418 2.094,6.415 2.133,6.541 2.134,6.541 2.154,6.41 2.204,6.407 			"/>
			<path fill="#FFFFFF" d="M2.409,6.47c0.011,0.041-0.01,0.064-0.05,0.075C2.342,6.548,2.32,6.55,2.3,6.538
				C2.291,6.53,2.284,6.521,2.279,6.503L2.251,6.399l0.035-0.01l0.026,0.103c0.006,0.021,0.021,0.028,0.038,0.024
				C2.374,6.51,2.38,6.497,2.375,6.479L2.348,6.375l0.034-0.008"/>
			<path fill="#FFFFFF" d="M1.305,5.113l-0.02,0.028L1.147,5.05l0.042-0.06c0.018-0.028,0.047-0.032,0.074-0.015
				c0.014,0.009,0.04,0.036,0.016,0.072L1.255,5.08 M1.249,5.038c0.014-0.021-0.001-0.03-0.007-0.036
				C1.229,4.993,1.218,4.997,1.205,5.017L1.19,5.038l0.041,0.025L1.249,5.038z"/>
			<path fill="#FFFFFF" d="M2.213,6.203c0.013,0.028-0.02,0.021-0.031,0.031h-0.01C2.174,6.219,2.191,6.194,2.213,6.203"/>
			<path fill="#FFFFFF" d="M2.035,5.712v0.014H1.992C1.987,5.699,2.024,5.694,2.035,5.712"/>
			<polyline fill="#FFFFFF" points="2.109,5.431 2.13,5.404 2.185,5.4 2.209,5.396 2.198,5.418 2.169,5.431 2.173,5.418 
				2.139,5.416 2.12,5.431 			"/>
			<polyline fill="#FFFFFF" points="2.244,5.396 2.262,5.396 2.283,5.404 2.272,5.418 2.251,5.422 2.242,5.435 2.23,5.427 
				2.212,5.431 2.209,5.421 2.226,5.416 2.219,5.408 2.226,5.4 			"/>
			<polyline fill="#FFFFFF" points="2.301,5.42 2.313,5.41 2.333,5.412 2.328,5.425 2.298,5.431 			"/>
			<polyline fill="#FFFFFF" points="2.139,5.446 2.162,5.442 2.157,5.456 2.135,5.456 			"/>
			<polyline fill="#FFFFFF" points="2.294,5.442 2.308,5.431 2.315,5.44 2.307,5.446 			"/>
			<polyline fill="#FFFFFF" points="2.283,5.465 2.294,5.478 2.303,5.473 2.297,5.45 			"/>
			<polyline fill="#FFFFFF" points="2.325,5.473 2.331,5.463 2.311,5.452 			"/>
			<line fill="none" x1="2.325" y1="5.473" x2="2.331" y2="5.463"/>
			<polyline fill="#FFFFFF" points="2.348,5.463 2.355,5.467 2.353,5.5 2.341,5.471 			"/>
			<path fill="#FFFFFF" d="M1.981,4.954C1.989,4.942,1.983,4.906,1.97,4.9c-0.015,0.023,0.031,0.035,0,0.054 M2.055,5.075
				C2.053,5.059,2.048,5.021,2.066,4.993l0.012-0.009C2.072,4.988,2.068,4.992,2.066,4.993l-0.021-0.02l0.011-0.01
				C2.04,4.969,2.035,4.95,2.023,4.944C2.008,4.982,2.101,5.031,2.012,5.035C2.007,5.029,1.999,5.024,2.001,5.015h-0.01v0.012h0.01
				C1.996,5.031,1.991,5.038,1.981,5.033c0,0.015,0.003,0.027-0.011,0.034h0.021c0.007,0.004,0.016,0.011,0.011,0.021
				c0.015,0.004,0.036-0.009,0.043,0.01C2.042,5.089,2.049,5.083,2.055,5.075 M2.167,5.569c0.022-0.016,0.035-0.023,0.068-0.03
				C2.232,5.548,2.24,5.554,2.245,5.56C2.268,5.533,2.283,5.554,2.3,5.57c0.007,0.006,0.018,0.013,0.029,0.01
				c0-0.004,0.002-0.007,0.004-0.01h0.012c0.017,0.037,0.076,0.06,0.081,0.102c0.037,0.02,0.087,0.004,0.116,0.04
				c0.075,0.083-0.09,0.112-0.063,0.196C2.465,5.96,2.424,5.97,2.373,5.979c-0.017,0.043-0.049,0.06-0.084,0.083
				C2.236,6.06,2.228,6.097,2.183,6.111C2.166,6.164,2.121,6.18,2.108,6.236C2.118,6.255,2.146,6.243,2.14,6.266
				C2.103,6.268,2.056,6.245,2.055,6.203C2.068,6.09,2.154,6.002,2.161,5.887C2.103,5.845,2.095,5.765,2.098,5.691
				c0.037-0.018,0.028-0.054,0.042-0.08L2.119,5.59c-0.021,0.031-0.036-0.017-0.064,0C2.053,5.582,2.049,5.575,2.044,5.569
				c-0.012-0.016-0.03-0.027-0.043-0.043c-0.041-0.013-0.088-0.014-0.126-0.04C1.827,5.481,1.855,5.431,1.812,5.414
				C1.806,5.421,1.798,5.427,1.801,5.437C1.733,5.416,1.76,5.342,1.727,5.3C1.735,5.272,1.736,5.244,1.73,5.217
				C1.726,5.202,1.718,5.186,1.707,5.168C1.639,5.095,1.565,5.224,1.484,5.179c0.031-0.002,0.055-0.016,0.074-0.04
				c-0.007-0.01-0.025-0.017-0.021-0.031l0.01-0.011l-0.01-0.01l0.01-0.012c-0.006-0.004-0.015-0.01-0.01-0.021
				c0.04-0.03,0.095-0.074,0.159-0.07c0.048-0.021,0.115,0.038,0.159-0.021C1.832,4.962,1.809,4.93,1.833,4.914
				c0.014,0.002,0.03-0.025,0.042,0c0.013-0.008,0.009-0.022,0.009-0.033C1.921,4.862,1.958,4.921,1.97,4.87h0.021
				c-0.003,0.011,0.005,0.017,0.01,0.021l0.011-0.011l0.011,0.011C2.052,4.864,2.07,4.921,2.108,4.902
				c0.028,0.021,0.045,0.059,0.054,0.091c-0.012,0-0.024-0.001-0.031,0.013l0.042,0.042c0.014-0.006,0.01-0.02,0.01-0.031
				C2.234,5.043,2.264,5.095,2.29,5.14C2.233,5.147,2.184,5.17,2.15,5.221c0.034,0.083-0.108,0.081-0.042,0.164L2.087,5.406
				c-0.003-0.02-0.008-0.037-0.021-0.054C2.011,5.389,1.915,5.318,1.929,5.427c0.014,0.012,0.013,0.029,0.032,0.04
				c0.025,0.011,0.036-0.021,0.052-0.03v-0.01h0.042c0.022,0.036-0.047,0.082,0.021,0.089c0,0.015,0.003,0.024-0.011,0.032
				c0.005,0.014,0.016,0.02,0.024,0.021c0.008,0.002,0.017,0,0.023,0h0.016c0.008,0,0.016,0.003,0.021,0.01
				C2.156,5.575,2.162,5.572,2.167,5.569"/>
			<path fill="#FFFFFF" d="M2.949,5.366c0.008-0.002,0.021-0.002,0.037-0.002c0.016,0,0.027,0.002,0.035,0.008
				c0.007,0.005,0.012,0.017,0.012,0.024c0,0.013-0.003,0.021-0.011,0.025C3.012,5.433,3,5.437,2.985,5.437
				c-0.003,0-0.004,0-0.007,0v0.036H2.949 M2.978,5.414c0.002,0,0.003,0,0.006,0c0.012,0,0.02-0.006,0.02-0.016
				c0-0.008-0.006-0.012-0.019-0.012c-0.004,0-0.006,0-0.008,0L2.978,5.414L2.978,5.414z"/>
			<path fill="#FFFFFF" d="M2.996,5.598L2.991,5.623H2.96l0.031-0.107h0.04l0.032,0.107H3.032L3.024,5.598 M3.021,5.575l-0.005-0.02
				C3.014,5.55,3.011,5.542,3.01,5.535l0,0C3.008,5.542,3.006,5.55,3.005,5.556L3,5.575H3.021z"/>
			<polyline fill="#FFFFFF" points="2.972,5.668 2.972,5.708 3.008,5.708 3.008,5.668 3.037,5.668 3.037,5.776 3.008,5.776 
				3.008,5.733 2.972,5.733 2.972,5.776 2.944,5.776 2.944,5.668 			"/>
			<path fill="#FFFFFF" d="M3.011,5.875c0,0.034-0.021,0.058-0.056,0.058S2.904,5.907,2.904,5.877c0-0.032,0.021-0.058,0.055-0.058
				C2.994,5.821,3.011,5.847,3.011,5.875 M2.935,5.877c0,0.021,0.01,0.031,0.022,0.031c0.015,0,0.022-0.014,0.022-0.031
				c0-0.02-0.009-0.034-0.022-0.034C2.945,5.843,2.935,5.856,2.935,5.877"/>
			<path fill="#FFFFFF" d="M1.166,5.475c0,0.036-0.021,0.058-0.056,0.058S1.057,5.507,1.057,5.477c0-0.032,0.021-0.058,0.056-0.058
				C1.147,5.421,1.166,5.446,1.166,5.475 M1.088,5.477c0,0.02,0.009,0.032,0.022,0.032s0.021-0.016,0.021-0.032
				c0-0.021-0.008-0.034-0.021-0.034S1.088,5.456,1.088,5.477"/>
			<path fill="#FFFFFF" d="M1.057,5.596c0.009-0.002,0.021-0.002,0.036-0.002c0.018,0,0.027,0.002,0.035,0.008
				c0.007,0.006,0.012,0.016,0.012,0.026c0,0.012-0.004,0.021-0.01,0.025C1.121,5.663,1.11,5.666,1.093,5.666
				c-0.003,0-0.005,0-0.007,0v0.037H1.057 M1.086,5.644c0.002,0,0.003,0,0.007,0c0.013,0,0.02-0.006,0.02-0.016
				c0-0.009-0.006-0.014-0.018-0.014c-0.005,0-0.007,0-0.009,0V5.644z"/>
			<path fill="#FFFFFF" d="M1.104,5.825c0.007,0.003,0.017,0.008,0.028,0.008c0.011,0,0.016-0.005,0.016-0.01
				c0-0.006-0.005-0.009-0.018-0.013C1.112,5.803,1.1,5.795,1.1,5.778c0-0.021,0.017-0.032,0.045-0.032
				c0.012,0,0.021,0.001,0.028,0.004L1.167,5.774C1.162,5.771,1.154,5.769,1.143,5.769c-0.01,0-0.015,0.002-0.015,0.007
				c0,0.007,0.005,0.009,0.021,0.014c0.02,0.008,0.027,0.019,0.027,0.032c0,0.018-0.015,0.035-0.046,0.035
				c-0.013,0-0.024-0.004-0.032-0.007"/>
			<path fill="#FFFFFF" d="M10.532,6.592h-0.113l-0.022,0.093h-0.082l0.12-0.415h0.092l0.116,0.415h-0.085 M10.48,6.348L10.48,6.348
				l-0.044,0.173h0.083L10.48,6.348z"/>
		</g>
	</g>
</g>
</svg>
